<?xml version="1.0" encoding="UTF-8" standalone="no"?>
<svg width="300px" height="300px" viewBox="0 0 300 300" version="1.1" xmlns="http://www.w3.org/2000/svg" xmlns:xlink="http://www.w3.org/1999/xlink" xmlns:sketch="http://www.bohemiancoding.com/sketch/ns">
    <!-- Generator: Sketch 3.4 (15575) - http://www.bohemiancoding.com/sketch -->
    <title>Slice</title>
    <desc>Created with Sketch.</desc>
    <defs></defs>
    <g id="Logo" stroke="none" stroke-width="1" fill="none" fill-rule="evenodd" sketch:type="MSPage">
        <g id="LogoWithSlice" sketch:type="MSLayerGroup">
            <g id="Logo" transform="translate(46.800000, 52.800000)" sketch:type="MSShapeGroup">
                <path d="M190.360405,116.048657 C192.587543,127.064115 188.531309,136.938475 182.991896,146.36276 C178.319645,154.314075 171.458164,161.824408 162.402716,168.902851 C153.347268,175.976748 142.330043,181.850447 129.351041,186.519401 C101.748745,196.448315 77.1886259,196.484685 55.6659435,186.614871 C34.1479997,176.754149 18.3116271,158.842097 8.17104137,132.887805 C1.29534518,115.303079 -1.23506266,98.486662 0.579817868,82.4340076 C2.39469839,66.3858994 8.56908305,52.2562903 19.1029718,40.0497264 C29.6368606,27.8477087 44.2317223,18.3870534 62.8875569,11.676853 C79.6763864,5.63949101 99.6211178,2.79356588 117.471392,5.44400414 C129.52163,7.23520942 142.112067,14.7773657 147.679912,25.406396 C150.646271,31.070969 150.556237,35.876309 147.040202,41.2999331 C144.149662,45.7552153 139.719079,49.3239872 134.587184,51.169747 C129.227837,53.0973384 123.626822,50.7424036 118.461757,49.142139 C104.568207,44.8368816 89.5658267,39.6814837 75.1178614,44.8823437 C61.9161456,49.628583 53.2113531,58.398215 49.0034839,71.1912395 C44.7956147,83.9888102 46.0513414,98.9685599 52.7564483,116.130489 C55.9076116,124.190912 59.835904,131.219347 64.5460639,137.224886 C69.2562238,143.230424 74.5113217,147.908471 80.2971418,151.254478 C86.082962,154.609579 92.2431309,156.509893 98.7634327,156.96906 C105.288473,157.428227 111.879854,156.459885 118.532836,154.064034 C128.038451,150.645287 136.999127,144.612471 142.718607,136.479308 C148.845606,127.768777 147.476153,116.225959 154.114919,107.624537 C160.23718,99.6959529 170.856363,94.9042515 180.295637,100.768858 C184.441905,103.34201 187.41774,107.365403 189.137849,111.83887 C189.663833,113.207278 190.071351,114.621148 190.360405,116.048657 Z" id="Fill-3" fill="#FFFFFF"></path>
                <g id="Group" transform="translate(166.221337, 0.183681)" fill-opacity="0.149999991" fill="#000000">
                    <path d="M11.0404494,35.6015279 C21.9534255,28.1412034 32.8664016,20.6808789 43.7746391,13.2205544 C51.1621032,8.1697192 44.0731704,-3.66405576 36.6004117,1.4458801 C25.6874356,8.90620462 14.779198,16.3619829 3.86622193,23.8223074 C-3.52124214,28.8731426 3.56769067,40.7069176 11.0404494,35.6015279" id="Fill-13"></path>
                    <path d="M26.9020467,56.4900879 C43.4918554,48.8388227 60.0816641,41.1921037 76.6714727,33.5408386 C84.9166219,29.7402101 77.7139629,17.9791744 69.4972453,21.7661643 C52.9074366,29.4128833 36.317628,37.0641484 19.7278193,44.7108674 C11.4826702,48.5114959 18.6853292,60.2770777 26.9020467,56.4900879" id="Fill-14"></path>
                    <path d="M31.4957892,83.3718057 C45.4462024,81.2350887 59.3966157,79.102918 73.3470289,76.966201 C82.3550912,75.5887005 78.5310479,62.4456181 69.5656329,63.8140262 C55.6152197,65.9507432 41.6648064,68.0874601 27.7191318,70.2196309 C18.7063309,71.5971314 22.5303742,84.7402138 31.4957892,83.3718057" id="Fill-15"></path>
                </g>
            </g>
        </g>
    </g>
</svg>